<?xml version="1.0" encoding="utf-8"?>
<svg viewBox="100.923 151.012 254.7 55.7" width="254.7" height="55.7" xmlns="http://www.w3.org/2000/svg">
  <g transform="matrix(1, 0, 0, 1, -39.776989, 37.311798)">
    <g>
      <path d="M182.5,126h-16.2v13.2h12.4c1.4,0,2.7,1.1,2.7,2.6s-1.2,2.7-2.7,2.7h-12.4v15.2c0,1.6-1.2,2.8-2.8,2.8s-2.7-1.3-2.7-2.8 v-36c0-1.6,1.3-2.9,2.8-2.9h19c1.4,0,2.7,1.1,2.7,2.6C185.1,124.9,183.9,126,182.5,126 M168.5,113.8c-15.4,0-27.8,12.5-27.8,27.8 c0,15.4,12.5,27.8,27.8,27.8c15.4,0,27.8-12.5,27.8-27.8v-25.9v-2L168.5,113.8L168.5,113.8z"/>
      <path d="M221.8,120.8c5.3,0,10,1.9,13.5,5.1c1.1,0.9,1.2,2.7,0.3,3.8c-1.1,1.2-2.7,1.2-3.9,0.3c-2.7-2.4-6-3.9-9.9-3.9 c-8.5,0-15.1,7-15.1,15.6c0,8.6,6.6,15.5,15.1,15.5c3.9,0,7.3-1.5,9.9-3.9c1.1-0.9,2.8-0.9,3.9,0.3c0.9,1.2,0.8,2.9-0.3,3.8 c-3.5,3.2-8.2,5.1-13.5,5.1c-11.5,0-20.6-9.3-20.6-20.9C201.2,130.1,210.3,120.8,221.8,120.8"/>
      <path d="M258.9,153.8v-2.7c-2.9-1-6.5-1.4-8.2-1.4c-5.6,0-6.7,2.5-6.7,4.3c0,2.1,1.7,3.8,5.4,3.8 C252.2,157.8,256.7,156.7,258.9,153.8 M241.3,140.7c-0.7-1.1-0.5-2.6,0.6-3.5c3-2.6,6.8-3.3,9.8-3.3c7.9,0,12.6,3.9,12.6,11.5v3.5 v10.6c0,1.5-1.2,2.7-2.7,2.7s-2.6-1.2-2.6-2.7v-1.1c-2,2.8-6.2,4.1-9.7,4.1c-6.2,0-10.4-3.2-10.4-8.5c0-4.7,3.2-8.6,11.8-8.6 c2.6,0,5.1,0.5,8.2,1.5v-1.4c0-4-2.7-6.7-7.7-6.7c-2.2,0-4.6,0.9-6.5,2.4C243.6,141.8,242,141.7,241.3,140.7"/>
      <path d="M271,136.8c0-1.5,1.2-2.7,2.7-2.7s2.7,1.2,2.7,2.7v1.7c1.5-3,5.4-4.5,7.6-4.7c1.1,0,2.1,0,3,0.2c3.5,0.5,5.9,2.5,7.2,5.5 c2.6-4.9,6.8-5.6,9.5-5.6c6.9,0,10.6,4.5,10.6,12.2v13.5c0,1.5-1.2,2.7-2.7,2.7s-2.7-1.2-2.7-2.7v-13.2c0-4.5-2.4-7.3-6.3-7.3 c-4.5,0-7.3,3.4-7.3,8v12.4c0,1.5-1.2,2.7-2.7,2.7s-2.7-1.2-2.7-2.7v-13.2c0-4.5-2.4-7.4-5.9-7.4c-3.8,0-7.7,2.4-7.7,8.2v12.4 c0,1.5-1.2,2.7-2.7,2.7s-2.7-1.2-2.7-2.7v-22.7H271z"/>
      <path d="M339.1,153.8v-2.7c-2.9-1-6.5-1.4-8.2-1.4c-5.6,0-6.7,2.5-6.7,4.3c0,2.1,1.7,3.8,5.4,3.8 C332.3,157.8,337,156.7,339.1,153.8 M321.4,140.7c-0.7-1.1-0.5-2.6,0.6-3.5c3-2.6,6.8-3.3,9.8-3.3c7.9,0,12.6,3.9,12.6,11.5v3.5 v10.6c0,1.5-1.2,2.7-2.7,2.7s-2.6-1.2-2.6-2.7v-1.1c-2,2.8-6.2,4.1-9.7,4.1c-6.2,0-10.4-3.2-10.4-8.5c0-4.7,3.2-8.6,11.8-8.6 c2.6,0,5.1,0.5,8.2,1.5v-1.4c0-4-2.7-6.7-7.7-6.7c-2.2,0-4.6,0.9-6.5,2.4C323.8,141.8,322.1,141.7,321.4,140.7"/>
      <path d="M364.1,138.9c-5.3,0-7.6,5.6-7.6,13v7.6c0,1.5-1.2,2.7-2.7,2.7s-2.7-1.2-2.7-2.7v-22.7c0-1.5,1.2-2.7,2.7-2.7 s2.7,1.2,2.7,2.7v3.8c1.4-4.8,4.1-6.8,7.7-6.8c2,0,5.3,0.4,4.8,3.3c-0.3,1.7-1.8,2.1-3.7,1.9C364.9,138.9,364.4,138.9,364.1,138.9 "/>
      <path d="M390,153.8v-2.7c-2.9-1-6.5-1.4-8.2-1.4c-5.6,0-6.7,2.5-6.7,4.3c0,2.1,1.7,3.8,5.4,3.8C383.3,157.8,387.8,156.7,390,153.8 M372.4,140.7c-0.7-1.1-0.5-2.6,0.6-3.5c3-2.6,6.8-3.3,9.8-3.3c7.9,0,12.6,3.9,12.6,11.5v3.5v10.6c0,1.5-1.2,2.7-2.7,2.7 s-2.6-1.2-2.6-2.7v-1.1c-2,2.8-6.2,4.1-9.7,4.1c-6.2,0-10.4-3.2-10.4-8.5c0-4.7,3.2-8.6,11.8-8.6c2.6,0,5.1,0.5,8.2,1.5v-1.4 c0-4-2.7-6.7-7.7-6.7c-2.2,0-4.6,0.9-6.5,2.4C374.7,141.8,373.1,141.7,372.4,140.7"/>
      <path d="M330.2,126.7c-1.1,1.1-2.4,1.7-3.9,1.7c-0.9,0-1.8-0.2-2.6-0.5c-0.8-0.3-1.5-0.9-2.1-1.5s-1.1-1.4-1.4-2.3 s-0.5-1.8-0.5-2.8c0-0.9,0.2-1.9,0.5-2.7c0.3-0.8,0.8-1.6,1.4-2.2s1.3-1.1,2.2-1.5c0.8-0.4,1.7-0.5,2.7-0.5c1.3,0,2.5,0.3,3.4,0.8 s1.6,1.3,2.1,2.2l-2,1.5c-0.3-0.7-0.8-1.2-1.5-1.6c-0.6-0.3-1.3-0.5-2.1-0.5c-0.6,0-1.1,0.1-1.6,0.4c-0.5,0.2-0.9,0.6-1.3,1 c-0.3,0.4-0.6,0.9-0.8,1.5c-0.1,0.5-0.3,1.2-0.3,1.8c0,0.6,0.1,1.3,0.3,1.8c0.2,0.6,0.5,1.1,0.9,1.5c0.3,0.4,0.8,0.7,1.3,1 c0.5,0.2,1,0.3,1.6,0.3c1.3,0,2.6-0.6,3.6-1.9v-1h-2.8v-2h5.1v7.2h-2.3L330.2,126.7L330.2,126.7z"/>
      <path d="M339.4,121.2h3.4c0.2,0,0.5,0,0.7-0.2c0.2-0.1,0.4-0.3,0.5-0.5s0.3-0.4,0.4-0.7c0.1-0.3,0.1-0.6,0.1-0.9s0-0.6-0.1-0.9 s-0.2-0.5-0.4-0.7c-0.2-0.2-0.4-0.3-0.6-0.5c-0.2-0.1-0.4-0.1-0.7-0.1h-3.3V121.2z M336.7,128.2v-13.9h6.2c0.6,0,1.2,0.1,1.8,0.4 c0.5,0.2,1,0.6,1.4,1.1c0.4,0.4,0.7,0.9,0.9,1.5c0.2,0.5,0.3,1.1,0.3,1.7c0,0.9-0.2,1.7-0.7,2.5c-0.4,0.7-1.1,1.3-1.8,1.6l3.2,5.3 h-3.1l-2.8-4.7h-2.7v4.7h-2.7V128.2z"/>
      <path d="M357.6,125.9c0.6,0,1.2-0.1,1.6-0.4c0.4-0.2,0.8-0.6,1.1-1c0.3-0.4,0.4-0.9,0.6-1.4c0.1-0.5,0.1-1.1,0.1-1.7v-7.1h2.7v7.1 c0,0.9-0.1,1.9-0.3,2.7c-0.2,0.8-0.6,1.6-1.1,2.2s-1.1,1.1-1.9,1.5c-0.8,0.3-1.7,0.5-2.7,0.5c-1.1,0-2.1-0.2-2.8-0.6 c-0.8-0.4-1.4-0.9-1.9-1.5s-0.8-1.4-1-2.2c-0.2-0.8-0.3-1.7-0.3-2.6v-7.1h2.7v7.1c0,0.6,0,1.2,0.1,1.7s0.3,1,0.6,1.4 c0.3,0.4,0.6,0.7,1,1C356.5,125.8,357,125.9,357.6,125.9"/>
      <path d="M371.1,121.2h3.1c0.5,0,0.9-0.2,1.2-0.6c0.3-0.4,0.5-0.9,0.5-1.7c0-0.3,0-0.7-0.1-0.9c-0.1-0.3-0.2-0.5-0.4-0.7 c-0.1-0.2-0.4-0.3-0.6-0.4s-0.5-0.1-0.7-0.1h-3V121.2z M368.4,128.2v-13.9h5.9c0.6,0,1.2,0.1,1.8,0.4c0.5,0.2,1,0.6,1.4,1.1 c0.4,0.4,0.7,0.9,0.9,1.5c0.2,0.5,0.3,1.1,0.3,1.7s-0.1,1.2-0.3,1.7c-0.2,0.5-0.5,1-0.9,1.5c-0.4,0.4-0.8,0.8-1.4,1 c-0.5,0.2-1.1,0.4-1.8,0.4H371v4.7L368.4,128.2z"/>
      <path d="M384.5,121.3c0,0.6,0.1,1.2,0.3,1.8c0.2,0.5,0.4,1.1,0.8,1.5c0.3,0.4,0.8,0.8,1.3,1s1.1,0.4,1.7,0.4s1.2-0.1,1.7-0.4 c0.5-0.2,0.9-0.6,1.3-1.1s0.6-0.9,0.8-1.5c0.2-0.5,0.2-1.1,0.2-1.7s-0.1-1.2-0.3-1.8c-0.2-0.5-0.4-1.1-0.8-1.5 c-0.3-0.4-0.8-0.8-1.3-1s-1.1-0.4-1.7-0.4s-1.2,0.1-1.8,0.4c-0.5,0.2-0.9,0.6-1.3,1.1c-0.3,0.4-0.6,0.9-0.8,1.5 C384.6,120.1,384.5,120.7,384.5,121.3 M388.6,128.3c-1,0-2-0.2-2.8-0.6s-1.5-0.9-2.2-1.6c-0.6-0.6-1.1-1.4-1.4-2.3 c-0.3-0.8-0.5-1.7-0.5-2.6s0.2-1.8,0.5-2.7c0.3-0.8,0.8-1.6,1.4-2.3c0.6-0.6,1.3-1.2,2.2-1.6c0.8-0.4,1.8-0.6,2.7-0.6 c1,0,1.9,0.2,2.7,0.6c0.8,0.4,1.5,0.9,2.1,1.6s1,1.4,1.4,2.3c0.3,0.8,0.5,1.7,0.5,2.6s-0.1,1.8-0.5,2.7c-0.3,0.8-0.8,1.6-1.4,2.3 c-0.6,0.6-1.3,1.2-2.2,1.6C390.4,128.1,389.5,128.3,388.6,128.3"/>
    </g>
  </g>
</svg>