<svg xmlns="http://www.w3.org/2000/svg" viewBox="0 0 500 500"><g id="freepik--background-complete--inject-41"><rect y="382.4" width="500" height="0.25" style="fill:#ebebeb"></rect><rect x="394.67" y="398.49" width="55.23" height="0.25" style="fill:#ebebeb"></rect><rect x="321.81" y="393.25" width="8.69" height="0.25" style="fill:#ebebeb"></rect><rect x="372.47" y="389.21" width="19.19" height="0.25" style="fill:#ebebeb"></rect><rect x="52.46" y="390.89" width="43.19" height="0.25" style="fill:#ebebeb"></rect><rect x="215.33" y="397.35" width="45.72" height="0.25" style="fill:#ebebeb"></rect><rect x="140.46" y="393.12" width="93.68" height="0.25" style="fill:#ebebeb"></rect><path d="M242.72,332.09A5.71,5.71,0,0,1,237,337.8H43.91a5.71,5.71,0,0,1-5.7-5.71V60.66A5.71,5.71,0,0,1,43.91,55H237a5.71,5.71,0,0,1,5.71,5.71m-.25,0A5.47,5.47,0,0,0,237,55.2H43.91a5.46,5.46,0,0,0-5.45,5.46V332.09a5.46,5.46,0,0,0,5.45,5.46H237a5.47,5.47,0,0,0,5.46-5.46" style="fill:#ebebeb"></path><path d="M453.31,337.8H260.21a5.72,5.72,0,0,1-5.71-5.71V60.66A5.72,5.72,0,0,1,260.21,55h193.1A5.71,5.71,0,0,1,459,60.66V332.09A5.71,5.71,0,0,1,453.31,337.8ZM260.21,55.2a5.47,5.47,0,0,0-5.46,5.46V332.09a5.47,5.47,0,0,0,5.46,5.46h193.1a5.47,5.47,0,0,0,5.46-5.46V60.66a5.47,5.47,0,0,0-5.46-5.46Z" style="fill:#ebebeb"></path><rect x="108.33" y="70.84" width="247.48" height="144" style="fill:#f0f0f0"></rect><rect x="115.2" y="70.84" width="276.47" height="144" style="fill:#f5f5f5"></rect><rect x="192.78" y="20.7" width="121.3" height="244.29" transform="translate(110.59 396.28) rotate(-90)" style="fill:#fff"></rect><rect x="234.09" y="-20.61" width="38.69" height="244.29" transform="translate(151.9 354.97) rotate(-90)" style="fill:#fafafa"></rect><rect x="227.85" y="55.77" width="51.16" height="244.29" transform="translate(75.52 431.35) rotate(-90)" style="fill:#f0f0f0"></rect><path d="M72.52,226C63.92,255,70,334.62,70,334.62l9.74,0C84.48,308.7,76.52,243.71,72.52,226Z" style="fill:#e6e6e6"></path><path d="M69.1,333.49h7.18s-9.13-69.44-18.59-92.27C55.08,271.55,69.1,333.49,69.1,333.49Z" style="fill:#f0f0f0"></path><path d="M121.79,237.47c3.39,25.82-17.13,96.85-17.13,96.85l-9.8,0C94.75,311.21,114.55,253.24,121.79,237.47Z" style="fill:#e6e6e6"></path><path d="M105.71,333.32H98.5s21.79-61.94,35.44-82.3C131.06,278.07,105.71,333.32,105.71,333.32Z" style="fill:#f0f0f0"></path><path d="M106.62,230.45c6.19,27.73-12.8,104-12.8,104l-11.81,0C80,309.64,99.17,247.38,106.62,230.45Z" style="fill:#e6e6e6"></path><path d="M85.81,333.49H78.64s1.42-69.44,8.34-92.27C93,271.55,85.81,333.49,85.81,333.49Z" style="fill:#f0f0f0"></path><path d="M57.69,324.69c0,31.87,13.36,57.71,29.84,57.71s29.83-25.84,29.83-57.71Z" style="fill:#f0f0f0"></path><polygon points="376.17 382.4 431.35 382.4 431.35 261.46 376.17 280.87 376.17 382.4" style="fill:#e0e0e0"></polygon><polygon points="236.19 382.4 420.96 382.4 434.45 244.64 249.69 244.64 236.19 382.4" style="fill:#e6e6e6"></polygon><polygon points="214.07 382.4 418.45 382.4 431.94 244.64 227.56 244.64 214.07 382.4" style="fill:#f0f0f0"></polygon><polygon points="404.95 365.58 418.45 261.46 241.07 261.46 227.56 365.58 404.95 365.58" style="fill:#fff"></polygon><polygon points="328.73 365.58 384.55 261.46 365.63 261.46 309.81 365.58 328.73 365.58" style="fill:#fafafa"></polygon><polygon points="301.8 365.58 357.62 261.46 325.36 261.46 269.54 365.58 301.8 365.58" style="fill:#fafafa"></polygon></g><g id="freepik--Shadow--inject-41"><ellipse id="freepik--path--inject-41" cx="250" cy="416.24" rx="193.89" ry="11.32" style="fill:#f5f5f5"></ellipse></g><g id="freepik--character-1--inject-41"><path d="M203.75,280.22s-23.81,12.46-61.65.73c2.64-18.32,7.15-74.6,7.15-74.6H194Z"></path><path d="M188.23,140.29c1.74,3.38,3.32,6.71,4.88,10.11s3,6.82,4.46,10.3l2.1,5.24c.66,1.77,1.33,3.53,2,5.34a111.63,111.63,0,0,1,3.43,11.25l.13.54a4.94,4.94,0,0,1,.1,1.75c-.31,2.61-.7,5.2-1.15,7.78s-1,5.14-1.57,7.69-1.27,5.07-2,7.57-1.56,5-2.59,7.5a3.86,3.86,0,0,1-7.44-1.59v-.12l.29-7.45c.09-2.5.2-5,.27-7.47s.15-5,.22-7.43.07-4.93.12-7.39l.23,2.29c-1-3.08-2.37-6.36-3.73-9.62s-2.86-6.54-4.35-9.82L179,156.91l-4.58-9.82v0a7.69,7.69,0,0,1,13.81-6.78Z"></path><path d="M149.35,149.73c-1,2.72-2,5.69-3,8.56s-1.81,5.83-2.63,8.75a123.47,123.47,0,0,0-3.68,17.38c-.17,1.41-.3,2.8-.34,4.11l0,.4a.9.9,0,0,0,0-.19s0,0,0,.15a6.37,6.37,0,0,0,.43,1.19,27.56,27.56,0,0,0,1.82,3.31c.73,1.17,1.55,2.35,2.4,3.53A137.82,137.82,0,0,0,156,210.65l0,0a6.43,6.43,0,0,1-9.22,9c-2.36-2.4-4.48-4.74-6.68-7.18s-4.31-4.93-6.37-7.59c-1-1.33-2-2.71-3-4.18a39.36,39.36,0,0,1-2.85-4.87,21.54,21.54,0,0,1-1.27-3.2,13.54,13.54,0,0,1-.6-3.52v-.78c0-1.83.1-3.57.24-5.3a137.26,137.26,0,0,1,3.4-19.62c.75-3.16,1.58-6.29,2.43-9.41s1.75-6.17,2.79-9.4a7.7,7.7,0,0,1,14.66,4.73l-.12.32Z" style="fill:#263238"></path><path d="M147.8,138.41c1.21-.23,2.44-.43,3.67-.61A170.32,170.32,0,0,1,171,136c.81,0,1.6,0,2.38,0,1.66.06,3.25.17,4.69.3a9.14,9.14,0,0,1,8,6.92c2.48,10.2,6.69,33.15,5.76,68.81l-46,2.45a337.39,337.39,0,0,0-7.53-64.66,9.15,9.15,0,0,1,7-10.95C146.13,138.73,147,138.56,147.8,138.41Z" style="fill:#fff"></path><path d="M151.36,115.68c1.81,6.16,4.11,17.53.11,22.12,3.53,3,6,5.54,13.05,4.74,5.38-.62,7.83-4.58,6.43-6.55-7.14-1-7.45-6.22-6.68-11.21Z" style="fill:#b55b52"></path><path d="M163.45,142.69a6.94,6.94,0,0,0-1.64,6.1c-5.73-1-12-6.58-12.9-8.95l2.55-3.17a1,1,0,0,1,1.4-.18C155.84,138.81,157.56,141.18,163.45,142.69Z" style="fill:#e0e0e0"></path><path d="M165.54,142.37a13.94,13.94,0,0,1,3.92,5.23c3.76-1.47,4.33-8.31,3.81-11.42l-3.34-.94a.82.82,0,0,0-1.05.71C168.71,137.53,167.64,141.44,165.54,142.37Z" style="fill:#e0e0e0"></path><path d="M156.62,119.4l7.64,5.38a21.1,21.1,0,0,0-.28,3.51c-2.7-.14-6.64-2.73-7.19-5.5A9.57,9.57,0,0,1,156.62,119.4Z" style="opacity:0.2"></path><path d="M169.37,109.06a8.13,8.13,0,0,0,.17,6.19c1.18,2.6,3.94,2.06,5.43-.19,1.34-2,2.34-5.81.28-7.67S170.34,106.61,169.37,109.06Z" style="fill:#b55b52"></path><path d="M169.37,109.06a8.13,8.13,0,0,0,.17,6.19c1.18,2.6,3.94,2.06,5.43-.19,1.34-2,2.34-5.81.28-7.67S170.34,106.61,169.37,109.06Z" style="opacity:0.2"></path><path d="M149.73,106.32c1.32,8.44,1.65,13.45,6.35,17.4,7.06,6,17.17,1.09,18.41-7.57,1.11-7.79-1.22-20.29-9.85-22.89A11.65,11.65,0,0,0,149.73,106.32Z" style="fill:#b55b52"></path><path d="M153.87,115.35c1-1.71,4.42-6.48.76-10.75,2.14.33,11.1-4.52,11.05-6.72,2.08,1.34,6.95,1.53,7.3-1.65.45-4.06-3.39-8-8.72-8.55s-7.86,1.56-10.91,1.13A4,4,0,0,0,156,90.06s-9.43,1.47-13.4,6.57c-3.09,4,.49,4.85.49,4.85S134.93,109.79,153.87,115.35Z" style="fill:#263238"></path><path d="M154.29,113l-.19,0a11.51,11.51,0,0,1-4.18-2.46.55.55,0,0,1,.79-.76,10.55,10.55,0,0,0,3.77,2.18.56.56,0,0,1,.33.71A.55.55,0,0,1,154.29,113Z" style="fill:#36357E"></path><path d="M156.17,123l-.18,0a9.58,9.58,0,0,1-4.13-3.08.55.55,0,0,1,.89-.64,8.7,8.7,0,0,0,3.6,2.69.54.54,0,0,1-.18,1.06Z" style="fill:#36357E"></path><path d="M144.18,99.67s-4.11,1.6-5.49-.44c.13,3.28,5.51,2.14,5.51,2.14Z" style="fill:#263238"></path><path d="M145.91,103.68s-3.66-2.45-5.45-.76c.84-3.17,5.84-.89,5.84-.89Z" style="fill:#263238"></path><path d="M147.21,116a7.27,7.27,0,0,0,4.93,3.13c2.83.35,2.89-2,1.94-4.54-.86-2.27-3-5.22-5.65-4.44S145.62,113.9,147.21,116Z" style="fill:#b55b52"></path><path d="M162.83,107.49c.06.7.48,1.22.93,1.18s.77-.64.71-1.33-.49-1.22-.94-1.17S162.77,106.8,162.83,107.49Z" style="fill:#263238"></path><path d="M170.64,106.77c.07.69.48,1.21.94,1.17s.76-.63.7-1.33-.49-1.21-.94-1.17S170.58,106.08,170.64,106.77Z" style="fill:#263238"></path><path d="M168.19,107.34A24.93,24.93,0,0,0,172,113c-1.11,1.25-3.24.92-3.24.92Z" style="fill:#a02724"></path><path d="M166.06,116a6.87,6.87,0,0,0,.9,0,.21.21,0,1,0,0-.41,5.51,5.51,0,0,1-4.66-1.72.2.2,0,1,0-.32.25A5.74,5.74,0,0,0,166.06,116Z" style="fill:#263238"></path><path d="M160.19,105.2a.42.42,0,0,0,.36-.2,3.25,3.25,0,0,1,2.47-1.59.41.41,0,0,0,.4-.42.41.41,0,0,0-.42-.4,4,4,0,0,0-3.14,2,.42.42,0,0,0,.13.57A.66.66,0,0,0,160.19,105.2Z" style="fill:#263238"></path><path d="M173.76,103.77a.46.46,0,0,0,.22-.06.4.4,0,0,0,.14-.56,4.1,4.1,0,0,0-3.13-2,.42.42,0,0,0-.42.4.41.41,0,0,0,.39.42,3.17,3.17,0,0,1,2.46,1.62A.45.45,0,0,0,173.76,103.77Z" style="fill:#263238"></path><polygon points="204.61 408.82 212.57 407.75 207.79 386.83 199.84 387.9 204.61 408.82" style="fill:#b55b52"></polygon><path d="M213.24,403.31l-10.18,2.51a.56.56,0,0,0-.43.71l2,7.38a1.7,1.7,0,0,0,2,1.1c3.25-.86,5.55-1.63,9.67-2.65,2.54-.62,6.26-1.76,9.77-2.62s2.25-4.23.66-4.17c-7.13.26-8.87-.88-11.85-2.11A2.66,2.66,0,0,0,213.24,403.31Z" style="fill:#263238"></path><polygon points="199.84 387.9 207.8 386.84 210.25 397.62 202.29 398.69 199.84 387.9" style="opacity:0.2"></polygon><path d="M191.82,212.06s6.88,70.53,9.78,95.58c3.17,27.43,10,83.85,10,83.85l-13.32,1.31s-12.18-52.91-16.7-79.45c-5.14-30.23-19.47-99.71-19.47-99.71Z" style="fill:#36357E"></path><path d="M172.3,242.51c6.53,8.37,7.32,36.1,5.89,52.22-2.6-13.88-5.81-30.16-8.67-44.47Z" style="opacity:0.2"></path><polygon points="213.9 394 198.47 396.46 196.53 391.15 212.9 388.18 213.9 394" style="fill:#263238"></polygon><path d="M215.5,404.31a2.64,2.64,0,0,0,1.5-.82,1.22,1.22,0,0,0,.15-1.15.64.64,0,0,0-.47-.48c-1-.25-3.33,2.07-3.59,2.34a.2.2,0,0,0,0,.22.2.2,0,0,0,.19.13A10.68,10.68,0,0,0,215.5,404.31Zm.81-2a.63.63,0,0,1,.27,0c.06,0,.14.05.18.2a.83.83,0,0,1-.09.79c-.36.49-1.44.81-2.93.88A8.29,8.29,0,0,1,216.31,402.27Z" style="fill:#36357E"></path><path d="M213.28,404.54a.13.13,0,0,0,.09-.05c.75-.68,2-2.92,1.57-3.81a.67.67,0,0,0-.76-.36,1.1,1.1,0,0,0-.78.46c-.78,1-.38,3.49-.37,3.6a.21.21,0,0,0,.14.15A.14.14,0,0,0,213.28,404.54Zm.86-3.8.09,0c.26,0,.31.08.34.13.24.52-.49,2.17-1.19,3a5,5,0,0,1,.34-2.86A.73.73,0,0,1,214.14,400.74Z" style="fill:#36357E"></path><polygon points="144.3 408.64 152.91 408.64 154.53 388.71 145.93 388.71 144.3 408.64" style="fill:#b55b52"></polygon><path d="M154,406.45H143.5a.77.77,0,0,0-.74.59l-1.7,7.65a1.27,1.27,0,0,0,1.26,1.53c3.38-.06,5.84-.26,10.09-.26,2.62,0,9.13.27,12.75.27s4.08-3.57,2.6-3.89c-6.63-1.45-10.25-3.45-12.37-5.36A2.14,2.14,0,0,0,154,406.45Z" style="fill:#263238"></path><polygon points="145.93 388.72 154.53 388.72 153.69 398.99 145.08 398.99 145.93 388.72" style="opacity:0.2"></polygon><path d="M175.52,212.93s-5.78,73.54-8.84,98.57c-3.34,27.4-10.27,81.16-10.27,81.16L143,393.2s1-54,2.83-80.85c2.08-30.59,0-97.84,0-97.84Z" style="fill:#36357E"></path><polygon points="157.17 396.15 142.13 396.15 142.13 390.61 158.84 390.24 157.17 396.15" style="fill:#263238"></polygon><path d="M156.83,408a2.65,2.65,0,0,0,1.66-.44,1.22,1.22,0,0,0,.42-1.08.65.65,0,0,0-.35-.58c-.95-.49-3.72,1.22-4,1.42a.2.2,0,0,0-.09.2.2.2,0,0,0,.15.17A10.44,10.44,0,0,0,156.83,408Zm1.28-1.79a.54.54,0,0,1,.27.06.24.24,0,0,1,.13.23.82.82,0,0,1-.28.74c-.47.4-1.6.45-3.06.16A8.36,8.36,0,0,1,158.11,406.17Z" style="fill:#36357E"></path><path d="M154.63,407.65l.1,0c.89-.49,2.61-2.37,2.43-3.33a.67.67,0,0,0-.65-.54,1.13,1.13,0,0,0-.87.27c-1,.81-1.2,3.3-1.21,3.4a.2.2,0,0,0,.09.19A.2.2,0,0,0,154.63,407.65Zm1.74-3.49h.09c.26,0,.29.15.3.21.11.56-1,2-1.88,2.66a4.93,4.93,0,0,1,1-2.7A.73.73,0,0,1,156.37,404.16Z" style="fill:#36357E"></path><path d="M151.14,135.49a.77.77,0,0,1,1,.49c1.27,3.85,7.7,19.25,11.15,54,3,29.86,3.95,81.9,1.63,99.89-16.4-2.42-25.89-8-25.89-8s5.74-69.32,3.31-89.5c-2.14-17.84-5.64-37.17-7.26-46a6.42,6.42,0,0,1,4.49-7.34Z" style="fill:#263238"></path><path d="M169.75,134.79a.77.77,0,0,0-.83,1c1.31,5.52,9.37,31.87,12.41,58.4C184.75,224,185.87,268,189.21,286c11.15-.74,16.37-7.07,16.37-7.07s-6.59-70.19-9.06-90.37c-2.27-18.55-6.15-38.17-8-47.07a6.9,6.9,0,0,0-6.06-5.42Z" style="fill:#263238"></path><path d="M155.28,111.72c-.8-.14-1.2.32-1.25.74-.29,2.43-.82,9.86,5.06,13.1,3.48,1.93,10.89,1.93,13.54.4,2.46-1.41,3.06-9.25,3.19-13.3a.89.89,0,0,0-.9-.94,9.57,9.57,0,0,1-4.45-.82c-1.63-.51-2.37.72-3.9,1.25C164,113,159.14,112.42,155.28,111.72Z" style="fill:#fff"></path><path d="M166.57,127.34A16.88,16.88,0,0,1,159,125.8c-5.54-3.06-5.63-9.69-5.19-13.37a1.16,1.16,0,0,1,.45-.77,1.39,1.39,0,0,1,1.12-.21c5.48,1,9.13,1.13,11.15.44a6.2,6.2,0,0,0,1.31-.67,3.07,3.07,0,0,1,2.77-.58l.67.23a8.06,8.06,0,0,0,3.67.58,1.08,1.08,0,0,1,.83.31,1.21,1.21,0,0,1,.37.91c-.14,4.41-.76,12-3.33,13.53A13.81,13.81,0,0,1,166.57,127.34ZM155,112a.74.74,0,0,0-.46.13.6.6,0,0,0-.24.4c-.42,3.54-.34,9.92,4.92,12.82,3.44,1.91,10.74,1.86,13.28.4,1.68-1,2.82-5.85,3.05-13.07a.63.63,0,0,0-.2-.49.54.54,0,0,0-.42-.17,8.5,8.5,0,0,1-3.89-.6l-.65-.23a2.54,2.54,0,0,0-2.31.53,7.24,7.24,0,0,1-1.42.72c-2.11.72-5.85.58-11.43-.42h0Z" style="fill:#36357E"></path></g><g id="freepik--character-2--inject-41"><polygon points="355.48 391.05 347.43 395.74 327.59 373.06 338.12 364.57 355.48 391.05" style="fill:#7f3e3b"></polygon><path d="M345.35,393.69l7.23-7.57a.72.72,0,0,1,.94-.13l6.33,4.51a1.45,1.45,0,0,1,.07,2.16c-2.56,2.6-3.92,3.73-7.1,7.06-2,2-5.81,6.48-8.51,9.31s-5.42.47-4.53-.93c4-6.3,4.55-9.79,4.87-12.91A2.59,2.59,0,0,1,345.35,393.69Z" style="fill:#263238"></path><path d="M344,397.28a3.61,3.61,0,0,1-1.94,1.26,1.07,1.07,0,0,1-1-.4.69.69,0,0,1-.13-.66c.37-1.23,4.2-2.69,4.64-2.85a.2.2,0,0,1,.23.31A16.48,16.48,0,0,1,344,397.28Zm-2.43,0a1.23,1.23,0,0,0-.23.35.25.25,0,0,0,.06.26.69.69,0,0,0,.65.28c.73-.08,1.84-1.13,3-2.85A12.63,12.63,0,0,0,341.58,397.23Z" style="fill:#36357E"></path><path d="M345.79,395l-.07,0c-1.11.48-4,.76-4.54,0-.14-.19-.23-.52.16-1a1.67,1.67,0,0,1,1.09-.64c1.46-.21,3.28,1.26,3.35,1.32a.19.19,0,0,1,.07.2A.34.34,0,0,1,345.79,395Zm-4-.85-.09.1c-.25.32-.16.45-.14.49.36.48,2.44.43,3.68,0a4.6,4.6,0,0,0-2.74-1A1.19,1.19,0,0,0,341.75,394.13Z" style="fill:#36357E"></path><path d="M328.51,166.49a118.74,118.74,0,0,1-4.89,16.62,76,76,0,0,1-3.5,8.09,39.81,39.81,0,0,1-5,7.86l-.4.47c-.15.18-.44.47-.67.69a7.23,7.23,0,0,1-2,1.32,6.77,6.77,0,0,1-2.58.61,7.31,7.31,0,0,1-2.34-.33,9.62,9.62,0,0,1-3-1.67,16.33,16.33,0,0,1-2-1.87,39.27,39.27,0,0,1-5.15-7.61,100.38,100.38,0,0,1-6.68-15.85,2.28,2.28,0,0,1,4.17-1.81l0,.05c1.31,2.38,2.66,4.81,4.06,7.15s2.82,4.67,4.35,6.85a36.8,36.8,0,0,0,4.75,5.83,8.86,8.86,0,0,0,1.14.91c.33.22.64.33.62.28a.47.47,0,0,0-.28-.06,1.51,1.51,0,0,0-.56.11c-.17.08-.23.1-.25.13s0,0,0-.08l.25-.34a35.84,35.84,0,0,0,3.59-6.44c1.05-2.37,2-4.85,2.88-7.37s1.65-5.11,2.4-7.71,1.43-5.27,2-7.78l0-.12a4.59,4.59,0,0,1,8.95,2.07Z" style="fill:#803e3c"></path><polygon points="351.83 408.55 342.83 408.86 341.1 377.43 353.6 377.61 351.83 408.55" style="fill:#7f3e3b"></polygon><path d="M342.21,406l10.1-.07a.65.65,0,0,1,.68.61l.6,8a1.57,1.57,0,0,1-1.55,1.61c-3.51,0-5.19-.23-9.63-.2-2.74,0-6.75.33-10.52.36s-3.72-3.7-2.12-4c7.14-1.56,8.4-3.66,10.9-5.67A2.54,2.54,0,0,1,342.21,406Z" style="fill:#263238"></path><path d="M320,162.54c-1.26,5.94-2.72,19.37-2.76,49.67l36.1,3.19c1.66-13.66,3-22.47,12.57-47a6.49,6.49,0,0,0-4.59-8.68c-2.32-.53-5-1.07-7.74-1.45a114,114,0,0,0-16.4-1.45c-4,0-8.35.32-11.4.58A6.46,6.46,0,0,0,320,162.54Z" style="fill:#263238"></path><path d="M358.59,167.07c-.16,4.39.75,11,2.73,13.74.63-1.81,1.32-3.72,2.07-5.75Z" style="opacity:0.2"></path><path d="M355,139.59c-1.9,5.22-4.52,14.85-1.4,18.72a69.83,69.83,0,0,1-17.9,10.86c-3.77-8.8,1.5-12.31,1.5-12.31,6.11-.89,6.68-5.3,6.33-9.51Z" style="fill:#7f3e3b"></path><path d="M351.71,143.54l-8.19,3.8a16.51,16.51,0,0,1,0,3c1.71.15,6.14-1.15,7.81-3.9A4.19,4.19,0,0,0,351.71,143.54Z" style="opacity:0.2"></path><path d="M362.53,131.34c-3,8.41-4,12-9.61,15.19-8.38,4.75-18.06-.73-17.67-9.85.35-8.21,5.14-20.58,14.49-21.6A12.15,12.15,0,0,1,362.53,131.34Z" style="fill:#7f3e3b"></path><path d="M361.63,114.64c-1.24-4.41,4.44-7.41,9-5.19,1.49-3.4,8.63-2.39,8.86,1.94,5.15.39,3.88,10-.95,9.87,4.27,3-2.66,8.1-9.81,3.94A76.46,76.46,0,0,1,361.63,114.64Z" style="fill:#263238"></path><circle cx="364.38" cy="120.1" r="6.81" style="fill:#36357E"></circle><path d="M342.19,118.78c1.55,2.22,9,3.32,13,2.88-.62.87.07,4.81,1.82,5.71-1.47,1.69-1.32,9.59,1.78,10.13s10.92-.93,12-8.34a14,14,0,0,0-3.43-11.23s-.89-5-8.32-7.08c-6-1.65-12,.61-12.24,1.69C343.17,113,340.4,116.2,342.19,118.78Z" style="fill:#263238"></path><path d="M356.22,136.4a.55.55,0,0,1-.54-.5.54.54,0,0,1,.5-.58c2.87-.24,5.45-.7,5.47-.71a.54.54,0,1,1,.19,1.07s-2.65.47-5.57.71Z" style="fill:#fff"></path><path d="M354,143.38a.54.54,0,0,1-.54-.5.55.55,0,0,1,.5-.58,9.08,9.08,0,0,0,4.29-1.59.55.55,0,0,1,.76.1.54.54,0,0,1-.11.76,10,10,0,0,1-4.86,1.81Z" style="fill:#fff"></path><path d="M317.25,212.21s-19.05,80.68-17.39,101c1.95,23.82,28,62.2,28,62.2l12-10.85s-11.88-31.45-20.66-51.93c2.81-20.48,27.68-78.35,27.68-97.84Z" style="fill:#36357E"></path><path d="M317.25,212.21s-19.05,80.68-17.39,101c1.95,23.82,28,62.2,28,62.2l12-10.85s-11.88-31.45-20.66-51.93c2.81-20.48,27.68-78.35,27.68-97.84Z" style="fill:#fff;opacity:0.4"></path><polygon points="342.02 366.21 327.89 376.75 324.26 374 339.77 361.76 342.02 366.21" style="fill:#36357E"></polygon><path d="M331.34,247.69C320.85,262.23,320.34,289,321,304c3.6-13.8,11.16-34.41,17.17-53C338,243.88,336.25,240.89,331.34,247.69Z" style="fill:#36357E;opacity:0.4"></path><path d="M324,212.27s5.25,68.2,7.58,91.72c2.77,27.92,8.56,74.18,8.56,74.18l13.44-.56s1.23-39.45-1-64.46c.4-33.21,7-76.86.71-97.75Z" style="fill:#36357E"></path><path d="M324,212.27s5.25,68.2,7.58,91.72c2.77,27.92,8.56,74.18,8.56,74.18l13.44-.56s1.23-39.45-1-64.46c.4-33.21,7-76.86.71-97.75Z" style="fill:#fff;opacity:0.4"></path><polygon points="354.61 380.06 339.2 379.63 338.12 374.78 355.56 374.3 354.61 380.06" style="fill:#36357E"></polygon><path d="M347.58,129.39c-.2.7-.73,1.16-1.19,1s-.66-.8-.46-1.5.72-1.15,1.18-1S347.77,128.7,347.58,129.39Z" style="fill:#263238"></path><path d="M339.7,127.15c-.2.69-.73,1.15-1.18,1s-.67-.8-.47-1.49.73-1.16,1.18-1S339.9,126.45,339.7,127.15Z" style="fill:#263238"></path><path d="M339.42,125.75l-1.53-1S338.37,126.34,339.42,125.75Z" style="fill:#263238"></path><path d="M342.19,129.52a19,19,0,0,1-3.75,3.74,3.14,3.14,0,0,0,2.35,1.18Z" style="fill:#630f0f"></path><path d="M344.2,138.17a7.17,7.17,0,0,1-1.19-.24.21.21,0,0,1-.15-.26.22.22,0,0,1,.26-.15,5.71,5.71,0,0,0,5.12-.87.21.21,0,0,1,.28.32A6,6,0,0,1,344.2,138.17Z" style="fill:#263238"></path><path d="M363.24,139.9a6.49,6.49,0,0,1-4.67,1.72c-2.28-.11-2.81-1.65-1.57-3.43,1.11-1.6,3.33-3.61,5.74-3.17C364.9,135.42,364.78,138.45,363.24,139.9Z" style="fill:#7f3e3b"></path><path d="M353.15,127.53a.44.44,0,0,1-.27-.2,3.37,3.37,0,0,0-2.54-1.72.44.44,0,0,1-.41-.45.43.43,0,0,1,.45-.4,4.21,4.21,0,0,1,3.24,2.14.42.42,0,0,1-.15.58A.45.45,0,0,1,353.15,127.53Z" style="fill:#263238"></path><path d="M338.19,123.48a.43.43,0,0,1-.28-.15.43.43,0,0,1,0-.6,4.2,4.2,0,0,1,3.76-1,.41.41,0,0,1,.29.52.42.42,0,0,1-.53.29,3.39,3.39,0,0,0-3,.8A.42.42,0,0,1,338.19,123.48Z" style="fill:#263238"></path><path d="M366.34,163.87a145.77,145.77,0,0,1,6.9,13.67c1,2.35,2,4.73,2.91,7.21a49.89,49.89,0,0,1,2.16,7.89,18.05,18.05,0,0,1,.24,4.89,9.25,9.25,0,0,1-.29,1.57,8,8,0,0,1-.28.87l-.3.67c-.21.46-.44.8-.66,1.2s-.46.71-.7,1a32.18,32.18,0,0,1-6.08,5.84A74.21,74.21,0,0,1,357,216.62a2.28,2.28,0,0,1-2.43-3.83l.06,0c3.76-3.07,7.56-6.25,10.89-9.53a28.54,28.54,0,0,0,4.16-5c.13-.19.2-.36.31-.54a3.79,3.79,0,0,0,.19-.46l.06-.19s0,0,0,0,0-.13,0-.27a11.16,11.16,0,0,0-.34-2.52,43,43,0,0,0-2.09-6.38c-.87-2.18-1.82-4.38-2.85-6.55-2.06-4.34-4.31-8.73-6.58-12.93l0-.07a4.59,4.59,0,0,1,8-4.46Z" style="fill:#803e3c"></path><path d="M337.26,407a1.22,1.22,0,0,1-.19-1,.84.84,0,0,1,.47-.61c1.08-.48,3.69,1.27,4,1.47a.19.19,0,0,1,.08.21.24.24,0,0,1-.17.17c-1.19.28-3.29.65-4.08-.12Zm3.58-.09c-1.06-.66-2.59-1.41-3.15-1.16a.34.34,0,0,0-.2.27.77.77,0,0,0,.17.76C338.08,407.22,339.26,407.26,340.84,406.94Z" style="fill:#36357E"></path><path d="M340.21,406.23a3.46,3.46,0,0,1-1-2.43.82.82,0,0,1,.75-.6,1.07,1.07,0,0,1,.89.28c.91.85.75,3.44.74,3.55a.22.22,0,0,1-.12.19.2.2,0,0,1-.21,0A4.89,4.89,0,0,1,340.21,406.23Zm.43-2.33-.09-.1a.66.66,0,0,0-.55-.18c-.28,0-.34.16-.37.26-.17.62.75,2.07,1.56,2.74A5,5,0,0,0,340.64,403.9Z" style="fill:#36357E"></path><path d="M354.24,213.32l.39,3.33c.09.26-.25.5-.67.46l-37.16-3.29c-.32,0-.56-.21-.55-.42l.2-3.28c0-.23.33-.39.69-.36L353.7,213A.63.63,0,0,1,354.24,213.32Z" style="fill:#fff"></path><path d="M348.66,217l1,.08c.19,0,.36-.07.36-.19l.23-4.27c0-.12-.14-.24-.34-.26l-1-.08c-.19,0-.36.07-.36.19l-.23,4.27C348.31,216.86,348.46,217,348.66,217Z" style="fill:#36357E"></path><path d="M348.66,217l1,.08c.19,0,.36-.07.36-.19l.23-4.27c0-.12-.14-.24-.34-.26l-1-.08c-.19,0-.36.07-.36.19l-.23,4.27C348.31,216.86,348.46,217,348.66,217Z" style="fill:#fff;opacity:0.4"></path><path d="M319.5,214.42l1,.08c.19,0,.36-.07.37-.19l.22-4.27c0-.12-.14-.24-.34-.26l-1-.08c-.19,0-.36.07-.36.19l-.23,4.27C319.15,214.28,319.3,214.4,319.5,214.42Z" style="fill:#36357E"></path><path d="M319.5,214.42l1,.08c.19,0,.36-.07.37-.19l.22-4.27c0-.12-.14-.24-.34-.26l-1-.08c-.19,0-.36.07-.36.19l-.23,4.27C319.15,214.28,319.3,214.4,319.5,214.42Z" style="fill:#fff;opacity:0.4"></path><path d="M334.08,215.71l1,.08c.19,0,.36-.07.36-.19l.23-4.27c0-.12-.14-.24-.34-.26l-1-.08c-.19,0-.36.07-.36.19l-.23,4.27C333.73,215.57,333.88,215.69,334.08,215.71Z" style="fill:#36357E"></path><path d="M334.08,215.71l1,.08c.19,0,.36-.07.36-.19l.23-4.27c0-.12-.14-.24-.34-.26l-1-.08c-.19,0-.36.07-.36.19l-.23,4.27C333.73,215.57,333.88,215.69,334.08,215.71Z" style="fill:#fff;opacity:0.4"></path><path d="M357.75,211.28l-7.62-.77a4.56,4.56,0,0,0-3.08.8L344.56,213a2.66,2.66,0,0,0-.64,3.74l1.74,2.39a2.66,2.66,0,0,0,3.15.9l4.68-1.93s5.52-.62,6.87-4.2Z" style="fill:#7f3e3b"></path><path d="M292.06,168.74l-2.83-4.19a2.65,2.65,0,0,0-3.12-1l-2.78,1a2.65,2.65,0,0,0-1.53,3.46L283,171a4.26,4.26,0,0,0,2,2.21l6.87,3.63,3.64-.76C296.32,172.31,292.06,168.74,292.06,168.74Z" style="fill:#7f3e3b"></path><path d="M347.3,128l-1.54-1S346.25,128.58,347.3,128Z" style="fill:#263238"></path><path d="M355.44,134.93c.84.06,1.1.59,1,1-.35,2.3-1.33,10.66-8,12.21-4,.91-9.86-.27-12.86-3.3-2-2-2.05-9.33-1.11-13.08a.91.91,0,0,1,1.14-.63,10.63,10.63,0,0,0,4.61.32c1.75-.07,2.16,1.24,3.54,2.09C346.15,135,351.44,134.63,355.44,134.93Z" style="fill:#36357E"></path><path d="M345.65,148.68c-3.55,0-7.76-1.18-10.23-3.67-2.05-2.08-2.13-9.52-1.17-13.33a1.17,1.17,0,0,1,.56-.73,1.14,1.14,0,0,1,.92-.1,8.92,8.92,0,0,0,3.79.36l.73-.05a3.21,3.21,0,0,1,2.57,1.21,6.12,6.12,0,0,0,1.12.92c1.66,1,4.94,1.13,8.1,1.22,1.15,0,2.35.07,3.42.15h0a1.41,1.41,0,0,1,1.07.5,1,1,0,0,1,.22.8l0,.28c-.39,2.62-1.57,10.61-8.17,12.14A13,13,0,0,1,345.65,148.68Zm-10.26-17.34a.71.71,0,0,0-.31.08.63.63,0,0,0-.31.39c-.93,3.71-.83,10.93,1,12.82,3.06,3.09,8.92,4.08,12.61,3.22,6.24-1.44,7.38-9.16,7.75-11.69l.05-.29a.53.53,0,0,0-.11-.38,1,1,0,0,0-.69-.29c-1.06-.08-2.25-.12-3.39-.15-3.24-.09-6.59-.19-8.37-1.3a6.66,6.66,0,0,1-1.22-1,2.66,2.66,0,0,0-2.17-1.05l-.7.05a9.35,9.35,0,0,1-4-.39Z" style="fill:#fff"></path></g></svg>