<svg xmlns="http://www.w3.org/2000/svg" viewBox="0 0 500 500"><g id="freepik--background-complete--inject-26"><rect y="382.4" width="500" height="0.25" style="fill:#ebebeb"></rect><rect x="416.78" y="398.49" width="33.12" height="0.25" style="fill:#ebebeb"></rect><rect x="322.53" y="401.21" width="8.69" height="0.25" style="fill:#ebebeb"></rect><rect x="396.59" y="389.21" width="19.19" height="0.25" style="fill:#ebebeb"></rect><rect x="52.46" y="390.89" width="43.19" height="0.25" style="fill:#ebebeb"></rect><rect x="104.56" y="390.89" width="6.33" height="0.25" style="fill:#ebebeb"></rect><rect x="131.47" y="395.11" width="93.68" height="0.25" style="fill:#ebebeb"></rect><path d="M237,337.8H43.91a5.71,5.71,0,0,1-5.7-5.71V60.66A5.71,5.71,0,0,1,43.91,55H237a5.71,5.71,0,0,1,5.71,5.71V332.09A5.71,5.71,0,0,1,237,337.8ZM43.91,55.2a5.46,5.46,0,0,0-5.45,5.46V332.09a5.46,5.46,0,0,0,5.45,5.46H237a5.47,5.47,0,0,0,5.46-5.46V60.66A5.47,5.47,0,0,0,237,55.2Z" style="fill:#ebebeb"></path><path d="M453.31,337.8H260.21a5.72,5.72,0,0,1-5.71-5.71V60.66A5.72,5.72,0,0,1,260.21,55h193.1A5.71,5.71,0,0,1,459,60.66V332.09A5.71,5.71,0,0,1,453.31,337.8ZM260.21,55.2a5.47,5.47,0,0,0-5.46,5.46V332.09a5.47,5.47,0,0,0,5.46,5.46h193.1a5.47,5.47,0,0,0,5.46-5.46V60.66a5.47,5.47,0,0,0-5.46-5.46Z" style="fill:#ebebeb"></path><rect x="81.39" y="103.92" width="339" height="106.91" transform="translate(501.77 314.76) rotate(180)" style="fill:#f0f0f0"></rect><rect x="86.3" y="108.84" width="329.17" height="97.08" transform="translate(501.77 314.76) rotate(180)" style="fill:#fff"></rect><rect x="79.61" y="103.92" width="1.77" height="106.91" style="fill:#e6e6e6"></rect><rect x="220.71" y="283.33" width="6.57" height="99.06" transform="translate(447.98 665.73) rotate(180)" style="fill:#e6e6e6"></rect><rect x="218.64" y="283.33" width="4.56" height="99.06" transform="translate(441.83 665.73) rotate(180)" style="fill:#f0f0f0"></rect><rect x="217.22" y="283.33" width="173.35" height="11.17" style="fill:#f0f0f0"></rect><rect x="393.51" y="294.5" width="6.57" height="87.89" transform="translate(793.59 676.9) rotate(180)" style="fill:#e6e6e6"></rect><rect x="391.44" y="294.5" width="4.56" height="87.89" transform="translate(787.44 676.9) rotate(180)" style="fill:#f0f0f0"></rect><rect x="435.07" y="294.5" width="6.57" height="87.89" transform="translate(876.71 676.9) rotate(180)" style="fill:#e6e6e6"></rect><rect x="433" y="294.5" width="4.56" height="87.89" transform="translate(870.56 676.9) rotate(180)" style="fill:#e6e6e6"></rect><rect x="262.27" y="294.5" width="6.57" height="87.89" transform="translate(531.1 676.9) rotate(180)" style="fill:#e6e6e6"></rect><rect x="260.2" y="294.5" width="4.56" height="87.89" transform="translate(524.95 676.9) rotate(180)" style="fill:#e6e6e6"></rect><rect x="390.57" y="283.33" width="51.07" height="11.17" transform="translate(832.21 577.84) rotate(180)" style="fill:#e6e6e6"></rect><path d="M59.81,236.62h57.74c9,0,17,7.76,19.16,18.39l6.65,33.44L157,288.4h0c6.51,0,12.11,5.57,13.34,13.28l1.82,11.45c2.75.48,5.1,3,5.77,6.35H77.9c-9,0-17-7.75-19.14-18.37l-9.55-48C47.5,244.49,52.57,236.62,59.81,236.62ZM158.51,313h10.1l-1.7-10.55c-.9-5.68-5-9.81-9.84-9.81h0l-12.82.05,1.62,8.15C147.23,307.91,152.58,313,158.51,313Z" style="fill:#e6e6e6"></path><polygon points="79.6 319.49 76.71 319.49 71.25 382.4 74.13 382.4 79.6 319.49" style="fill:#e0e0e0"></polygon><polygon points="90.42 319.49 87.54 319.49 82.07 382.4 84.96 382.4 90.42 319.49" style="fill:#e0e0e0"></polygon><polygon points="165.46 319.49 168.34 319.49 173.81 382.4 170.92 382.4 165.46 319.49" style="fill:#e0e0e0"></polygon><polygon points="154.63 319.49 157.52 319.49 162.98 382.4 160.1 382.4 154.63 319.49" style="fill:#e0e0e0"></polygon><path d="M256.69,263.45c4.91,5.48,22.48,11.2,27.68-6,3.78-12.53-17.36-21.79-30-22.32-13.62-.58-21.67,4.22-21.67,4.22A302.68,302.68,0,0,1,256.69,263.45Z" style="fill:#e6e6e6"></path><path d="M284.37,267.1c-6.9.74-18.63-4.54-14-19s14.14-15.84,20.43-17.06c8-1.54,24,5,24,5S291.28,266.37,284.37,267.1Z" style="fill:#e6e6e6"></path><path d="M266.32,240.62c8.69,3.95,16,5.29,11.86-7s-9.12-18.21-17.29-20.71c-10.4-3.19-22.76,3.66-22.76,3.66S257.62,236.67,266.32,240.62Z" style="fill:#e6e6e6"></path><path d="M278.12,239.79c-6.65,2-11.87,1.55-6.92-10.3s8.25-13.34,13.92-15.61c10.49-4.2,19.28,3.34,19.28,3.34S284.76,237.83,278.12,239.79Z" style="fill:#e6e6e6"></path><path d="M263.67,220.23c7.21,6.32,13.85,10.32,13.56.5s-5.4-18.62-13.16-22.58c-5.34-2.73-17.15-1.5-17.15-1.5S256.46,213.92,263.67,220.23Z" style="fill:#e6e6e6"></path><path d="M282.26,218.59c-4.71,3.76-8.81,5.75-7.32-2.23s4.12-10.13,8.63-13a16.47,16.47,0,0,1,12-1.84S287,214.83,282.26,218.59Z" style="fill:#e6e6e6"></path><polygon points="249.78 263.26 297.17 263.26 290.93 283.33 256.01 283.33 249.78 263.26" style="fill:#f0f0f0"></polygon></g><g id="freepik--Shadow--inject-26"><ellipse id="freepik--path--inject-26" cx="250" cy="416.24" rx="193.89" ry="11.32" style="fill:#f5f5f5"></ellipse></g><g id="freepik--character-2--inject-26"><path d="M308.84,417.67h0c-.45,0-45.09-.49-45.87-4.34-.17-.79.82-1.23,1.15-1.37,3.49-1.53,53.91-2.31,100.63-2.17,22.54.06,96.36.53,100.14,3.91a.79.79,0,0,1,.26.83c-.16.49-.42,1.32-10.38,2.57a.5.5,0,0,1-.55-.44.49.49,0,0,1,.43-.55c6.9-.87,8.84-1.5,9.38-1.8-3.5-1.95-42.77-3.36-98.85-3.52-51.62-.16-97.72.8-100.66,2.09a2.28,2.28,0,0,0-.53.29c1.62,1.68,22.32,3.31,44.86,3.5a.5.5,0,0,1,.49.51A.49.49,0,0,1,308.84,417.67Z" style="fill:#263238"></path><path d="M341.35,146.88c11.06-10.44,26.36.76,25,12.61,6.71.72,7.1,7.29,4.21,10.18,3.67,1.66,2,11-4.46,8.87-1.21,4.31-11.51,6.59-13.48,2.53-4.49,4-13.66,3.59-14.66-2.07-7.45,1.55-9.13-8.68-4.81-10.62-4.3.73-3.27-7.21.55-6.23C332.38,158.89,333.18,144.65,341.35,146.88Z" style="fill:#263238"></path><path d="M335.56,200.1c-.69,2.28-1.48,4.32-2.32,6.44s-1.83,4.13-2.87,6.17a58.68,58.68,0,0,1-3.51,6c-.67,1-1.35,1.93-2.13,2.86l-.57.7s-.2.24-.34.39a5.62,5.62,0,0,1-.6.52,4.22,4.22,0,0,1-4.64.33,4.69,4.69,0,0,1-1.14-.89,6.2,6.2,0,0,1-1-1.32,17.77,17.77,0,0,1-1.48-3.76c-.33-1.15-.6-2.27-.84-3.38-.45-2.22-.85-4.4-1.14-6.6s-.56-4.38-.79-6.56-.4-4.37-.49-6.59a2,2,0,0,1,3.92-.56h0l1.55,6.29c.5,2.1,1,4.19,1.57,6.25s1.09,4.13,1.73,6.12c.3,1,.62,2,1,2.88a11.68,11.68,0,0,0,1.05,2.24c.05.08.12.12,0,0a2.08,2.08,0,0,0-.5-.38,2.85,2.85,0,0,0-1.62-.34,2.88,2.88,0,0,0-1.5.55,1.58,1.58,0,0,0-.29.25s-.15.16-.08.07l.41-.6c.56-.78,1.07-1.64,1.58-2.49,1-1.71,1.92-3.56,2.81-5.41s1.7-3.79,2.45-5.73,1.51-3.95,2.16-5.8l0-.1a4,4,0,0,1,7.6,2.49Z" style="fill:#7f3e3b"></path><path d="M331.81,189.26c-8.94,4.18-9.05,16.25-9.05,16.25l11,5.3s6.63-10.18,5.81-14.62C338.7,191.56,336.83,186.9,331.81,189.26Z" style="fill:#263238"></path><path d="M334.62,198.35c-1.93,1.19-4.89,5.63-6.29,9.85l5.41,2.62s4.16-6.4,5.48-11.27C338.67,198.14,337.07,197,334.62,198.35Z" style="opacity:0.2"></path><path d="M318.78,186.83a2,2,0,0,0-1.94-2.11l-3.43-.12a2,2,0,0,0-2.06,1.62L311,188.1a5.32,5.32,0,0,0,0,2c.34,2,.33,2.85,1.06,5.94l3.74.76a7.14,7.14,0,0,0,2.92-7.14Z" style="fill:#7f3e3b"></path><polygon points="364.86 404.11 356.71 404.88 355.15 386.12 363.3 385.35 364.86 404.11" style="fill:#7f3e3b"></polygon><polygon points="417.7 387.88 410.86 392.26 400.86 376.13 407.69 371.74 417.7 387.88" style="fill:#7f3e3b"></polygon><path d="M409.34,391.27l5.84-7.07a.65.65,0,0,1,.84-.14l6.26,3.81a1.31,1.31,0,0,1,.28,1.93c-2.07,2.43-3.2,3.5-5.76,6.6-1.58,1.92-4.79,6.38-7,9s-4.91.63-4.24-.67c3-5.8,3.29-9.29,3.27-12.11A2.18,2.18,0,0,1,409.34,391.27Z" style="fill:#263238"></path><path d="M355.48,402.44h9.68a.8.8,0,0,1,.76.59l2.11,7.66a1.21,1.21,0,0,1-1.18,1.53c-3.41,0-5,0-9.29,0h-13c-3.54,0-4.28-3.57-2.82-3.89,6.56-1.46,10.35-3.46,12.37-5.37A2,2,0,0,1,355.48,402.44Z" style="fill:#263238"></path><polygon points="355.15 386.13 355.95 395.79 364.18 395.79 363.31 385.36 355.15 386.13" style="opacity:0.2"></polygon><polygon points="407.7 371.75 400.86 376.13 406.02 384.45 412.86 380.06 407.7 371.75" style="opacity:0.2"></polygon><path d="M329.22,194.09c.26,5.39,2,17.42,8.8,44.23l33-2.86c-1.56-12.23-2.31-20.2.65-42.92a6.59,6.59,0,0,0-6.22-7.45c-2.14-.1-4.57-.15-7-.06a106.07,106.07,0,0,0-15,1.3c-3.65.65-7.62,1.67-10.35,2.43A5.26,5.26,0,0,0,329.22,194.09Z" style="fill:#263238"></path><path d="M355.49,168.29c-.53,4.9-.71,13.82,2.95,16.74a55.33,55.33,0,0,1-11.79,8.38c-5.74-4-3.2-7.08-3.2-7.08,5.27-1.75,4.78-5.73,3.52-9.39Z" style="fill:#7f3e3b"></path><path d="M352,171.82l-5,5.11a15.19,15.19,0,0,1,.7,2.62c2-.47,5-2.58,5-4.75A8.51,8.51,0,0,0,352,171.82Z" style="opacity:0.2"></path><path d="M359.81,160.62c-2.05,7.84-2.75,11.2-7.55,14.48-7.23,4.94-16.4.71-16.74-7.58-.3-7.45,3.09-19,11.48-20.64A11,11,0,0,1,359.81,160.62Z" style="fill:#7f3e3b"></path><path d="M342,147.67c2.63,4.46,9.25,8.87,13.34,8.83-2.84,2.58-4.25,9.39,3.25,10,4.58-6.07,4.79-10.53,3.66-12.74S352.33,141.21,342,147.67Z" style="fill:#263238"></path><path d="M351.44,174.17l-.09-1c3.45-.32,6-1.88,6.88-4.19a3.36,3.36,0,0,0-.55-3.55c-1.2-1.24-2.84-.21-5,1.37a12.12,12.12,0,0,1-2.48,1.54l-.36-.93a12,12,0,0,0,2.25-1.42c2-1.43,4.43-3.22,6.33-1.25a4.35,4.35,0,0,1,.77,4.59C358.18,172,355.29,173.81,351.44,174.17Z" style="fill:#fff"></path><path d="M360.45,167.27a5.87,5.87,0,0,1-3.47,2.88c-2,.6-3-1.17-2.51-3.06.47-1.71,2.06-4.08,4.07-3.85A2.66,2.66,0,0,1,360.45,167.27Z" style="fill:#7f3e3b"></path><path d="M338,238.32s-3.82,44.3,2.54,79.35c4.25,23.47,12.77,75.32,12.77,75.32l12.59-.36c-2-26-2.08-61.81-6.64-83.3.81-29.41,2.91-73.1,2.91-73.1Z" style="fill:#36357E"></path><path d="M355.29,260.83c-4.6,8.76-5.2,29.73,4,46.64.35-12.08.89-26.27,1.42-38.8Z" style="opacity:0.2"></path><polygon points="352.45 393.72 367.47 393.28 366.47 387.93 351.09 388.77 352.45 393.72" style="fill:#263238"></polygon><path d="M345.23,237.79s9.77,47.82,23.14,76.82c10.79,23.42,33.46,67.26,33.46,67.26L412,377s-15.42-50.88-25.82-67.27c-8.25-25.57-3.32-60.44-15.17-74.26Z" style="fill:#36357E"></path><polygon points="401.29 383.99 413.68 377.24 411.69 371.94 398.48 379.34 401.29 383.99" style="fill:#263238"></polygon><path d="M371.35,233.48l1.75,2.83c.13.22-.12.47-.5.51l-34.62,3c-.29,0-.55-.1-.59-.28l-.55-2.93c0-.21.2-.4.53-.43l33.42-2.89A.61.61,0,0,1,371.35,233.48Z" style="fill:#263238"></path><path d="M367.19,237.61l.89-.08c.18,0,.31-.12.28-.23l-.75-3.8c0-.11-.18-.19-.36-.18l-.9.08c-.17,0-.3.12-.28.23l.75,3.8C366.84,237.54,367,237.62,367.19,237.61Z" style="fill:#36357E"></path><path d="M340.53,239.91l.89-.08c.18,0,.31-.11.29-.23l-.76-3.8c0-.11-.18-.19-.36-.17l-.9.08c-.17,0-.3.11-.28.23l.75,3.8C340.18,239.85,340.35,239.93,340.53,239.91Z" style="fill:#36357E"></path><path d="M353.86,238.76l.89-.08c.18,0,.31-.12.29-.23l-.76-3.8c0-.11-.18-.19-.36-.17l-.9.07c-.17,0-.3.12-.28.23l.75,3.81C353.51,238.7,353.68,238.77,353.86,238.76Z" style="fill:#36357E"></path><path d="M346.55,160.36c-.13.64-.58,1.1-1,1s-.66-.67-.53-1.31.57-1.11,1-1S346.67,159.71,346.55,160.36Z" style="fill:#263238"></path><path d="M339.25,158.92c-.13.65-.57,1.1-1,1s-.67-.67-.54-1.32.57-1.1,1-1S339.38,158.28,339.25,158.92Z" style="fill:#263238"></path><path d="M338.89,157.67l-1.46-.75S338,158.29,338.89,157.67Z" style="fill:#263238"></path><path d="M341.76,160.53a17.69,17.69,0,0,1-3.11,3.67,2.81,2.81,0,0,0,2.21.88Z" style="fill:#630f0f"></path><path d="M343.85,168.16a5.37,5.37,0,0,0,3.68-1.4.16.16,0,0,0,0-.23.15.15,0,0,0-.22,0,5.32,5.32,0,0,1-4.6,1.18.16.16,0,0,0-.06.32A6.61,6.61,0,0,0,343.85,168.16Z" style="fill:#263238"></path><path d="M337.21,175c-2.61-1.94-3.06-6.87-2.74-9.92.24-2.27,6.23-2.62,6.23-2.62s9.44,3.71,10.29,5.7c1.4,3.3,1.59,7.17-.86,8.59S340.63,177.54,337.21,175Z" style="fill:#fff"></path><path d="M350.93,157.85a.35.35,0,0,0,.17,0,.32.32,0,0,0,.1-.45,3.8,3.8,0,0,0-2.91-1.88.34.34,0,0,0-.33.31.33.33,0,0,0,.31.34,3.08,3.08,0,0,1,2.38,1.57A.32.32,0,0,0,350.93,157.85Z" style="fill:#263238"></path><path d="M337.22,155.27a.42.42,0,0,0,.16,0,3.14,3.14,0,0,1,2.85-.19.32.32,0,0,0,.43-.14.32.32,0,0,0-.13-.43,3.76,3.76,0,0,0-3.46.19.33.33,0,0,0-.13.44A.32.32,0,0,0,337.22,155.27Z" style="fill:#263238"></path><path d="M369.06,200a114.19,114.19,0,0,1-1.49,12.75,56.86,56.86,0,0,1-1.43,6.48,24,24,0,0,1-1.28,3.5,10,10,0,0,1-1.36,2.17l-.31.33-.38.36a5.15,5.15,0,0,1-.59.43,4.32,4.32,0,0,1-.45.25,8,8,0,0,1-1.25.49,24.56,24.56,0,0,1-3.55.72c-1.1.15-2.18.28-3.24.38-2.14.19-4.25.34-6.36.42s-4.21.13-6.31.17-4.2,0-6.32-.07h0a2,2,0,0,1-.25-4l12.27-2c2-.35,4.06-.69,6.05-1.08,1-.18,2-.38,2.93-.6a22.58,22.58,0,0,0,2.52-.71l.2-.1-.12.06a2.33,2.33,0,0,0-.27.19l-.1.09,0,0c-.05.05.1-.21.2-.52a20.38,20.38,0,0,0,.69-2.43c.41-1.82.7-3.8,1-5.78s.49-4,.69-6,.4-4.08.59-6.06v-.07a4,4,0,0,1,8,.62Z" style="fill:#7f3e3b"></path><rect x="306.32" y="190.28" width="18.55" height="197.27" transform="translate(15.74 -16.31) rotate(3.04)" style="fill:#36357E"></rect><rect x="310.11" y="190.28" width="10.97" height="197.27" transform="translate(15.74 -16.31) rotate(3.04)" style="opacity:0.2"></rect><rect x="313.71" y="190.28" width="3.77" height="197.27" transform="translate(15.75 -16.31) rotate(3.04)" style="fill:#36357E"></rect><polygon points="301.11 386.93 308.8 417.12 319.63 387.91 301.11 386.93" style="fill:#36357E"></polygon><polygon points="319.63 387.9 312.18 408.01 306.4 407.7 301.11 386.92 319.63 387.9" style="fill:#fff;opacity:0.7000000000000001"></polygon><path d="M336.05,224.37l-5.77-2.07a4.72,4.72,0,0,0-2.24-.24l-1.53.2a2.25,2.25,0,0,0-1.9,2.75l.55,2.37a2.27,2.27,0,0,0,2.27,1.75L330,229s4.69,1,7-1.47Z" style="fill:#7f3e3b"></path><path d="M369.11,186.46c7.62,5,.14,21.87.14,21.87l-13-1.45s-.2-12.38,2.37-17C360.79,185.94,364.75,183.58,369.11,186.46Z" style="fill:#263238"></path><path d="M407,395.22a1.15,1.15,0,0,0,.32,0c1-.15,2-1.79,2.44-2.76a.15.15,0,0,0,0-.17.16.16,0,0,0-.17-.05c-.32.09-3.11,1-3.38,2a.63.63,0,0,0,.16.61A1.16,1.16,0,0,0,407,395.22Zm2.3-2.55c-.71,1.33-1.45,2.16-2,2.24a.75.75,0,0,1-.69-.29.31.31,0,0,1-.09-.31C406.68,393.7,408.35,393,409.32,392.67Z" style="fill:#36357E"></path><path d="M407.09,392.67a5.72,5.72,0,0,0,2.6-.12.15.15,0,0,0,.1-.12.16.16,0,0,0-.05-.15c-.08-.07-1.89-1.55-3-1.36a1,1,0,0,0-.7.45.65.65,0,0,0,0,.81A1.91,1.91,0,0,0,407.09,392.67Zm2.32-1.5c-.93.21-2.64.13-3-.36-.06-.08-.12-.2,0-.43a.68.68,0,0,1,.47-.31C407.66,390,408.89,390.79,409.41,391.17Z" style="fill:#36357E"></path><path d="M351.19,404a12.55,12.55,0,0,0,2.64-.34.14.14,0,0,0,.12-.14.15.15,0,0,0-.09-.16c-.4-.19-3.91-1.81-4.79-1.21a.55.55,0,0,0-.23.5,1.15,1.15,0,0,0,.48.9A3.21,3.21,0,0,0,351.19,404Zm2.09-.55c-1,.19-3,.45-3.77-.15a.88.88,0,0,1-.35-.67.24.24,0,0,1,.09-.22C349.74,402.09,351.82,402.82,353.28,403.46Z" style="fill:#36357E"></path><path d="M353.79,403.68a.21.21,0,0,0,.11,0,.18.18,0,0,0,.05-.16c0-.15-.83-3.61-2.73-3.39-.48.06-.61.29-.64.48-.12.88,2.1,2.66,3.15,3.09Zm-2.4-3.28c1.21,0,1.92,2,2.16,2.82-1.14-.6-2.73-2-2.65-2.6,0-.05,0-.17.35-.21Z" style="fill:#36357E"></path><path d="M346.19,159.11l-1.46-.75S345.29,159.72,346.19,159.11Z" style="fill:#263238"></path></g><g id="freepik--character-1--inject-26"><path d="M165.83,426.22q-28.23,0-64.53-2.85c-5.48-.43-14.43-.52-23.91-.62C51,422.46,32.15,422,30.6,418.21a1.94,1.94,0,0,1,.68-2.16l.36.35-.36-.35c3.46-3.49,52.47-5.16,96.54-5.24,42.39-.07,94.89,1.31,103.32,5.42q1.47.72,1.35,1.68c-.13,1-1.46,2.29-10.36,4.11C207.52,424.82,188.68,426.22,165.83,426.22ZM32,416.75c-.42.43-.58.79-.46,1.08,1.41,3.44,27.11,3.72,45.87,3.92,9.5.1,18.47.19,24,.63,53.44,4.2,94,3.75,120.56-1.34,8.94-1.82,9.53-3,9.56-3.25s-.14-.34-.8-.66c-7.75-3.78-57.25-5.42-102.88-5.32C75.89,411.9,34.69,414,32,416.75Z" style="fill:#263238"></path><rect x="163.13" y="155.3" width="21.36" height="227.22" transform="translate(64.97 -32.21) rotate(13)" style="fill:#36357E"></rect><rect x="167.49" y="155.3" width="12.64" height="227.22" transform="translate(64.97 -32.22) rotate(13.01)" style="opacity:0.2"></rect><rect x="171.63" y="155.3" width="4.35" height="227.22" transform="translate(64.97 -32.21) rotate(13)" style="fill:#36357E"></rect><polygon points="137.83 377.2 140.53 412.98 158.65 382.01 137.83 377.2" style="fill:#36357E"></polygon><polygon points="158.65 382.01 146.18 403.33 139.69 401.83 137.83 377.2 158.65 382.01" style="fill:#fff;opacity:0.7000000000000001"></polygon><path d="M158.86,128.3a23.32,23.32,0,0,0,3.49,5,3.33,3.33,0,0,1-2.78.76Z" style="fill:#ed847e"></path><path d="M146.56,129.92c5.18.2,10.21,1.15,13,1.15a3.19,3.19,0,0,1,3,2.09c.87,2.35.72,4.86-.46,8.39-1.56,4.72-10.44,3.55-14.19,2.61C147.75,138.76,146.56,129.92,146.56,129.92Z" style="fill:#36357E"></path><path d="M133.69,164.09c-1.73,4-3.48,8.19-5.1,12.32s-3.15,8.32-4.43,12.48l-.47,1.56c-.14.49-.22.72-.27,1s-.06.37-.1.32a3.35,3.35,0,0,0-.43-.57,1,1,0,0,0-.61-.36c-.06,0,.08.1.32.17a7.68,7.68,0,0,0,2.29.09,35.85,35.85,0,0,0,6-1.11c2.1-.51,4.27-1.18,6.33-1.83l.11,0a2.83,2.83,0,0,1,2.48,5c-1,.73-2,1.36-3.09,2s-2.09,1.22-3.2,1.76a35.68,35.68,0,0,1-7.16,2.78,17.39,17.39,0,0,1-4.58.54,9.9,9.9,0,0,1-3-.56,8.16,8.16,0,0,1-3.4-2.33,8.49,8.49,0,0,1-1.8-3.69,11.17,11.17,0,0,1-.22-3.11,17.17,17.17,0,0,1,.34-2.42l.36-1.78A119.68,119.68,0,0,1,118,172.5a133.23,133.23,0,0,1,5.4-13.21A5.67,5.67,0,0,1,133.74,164Z" style="fill:#ffc3bd"></path><path d="M137.63,188.42l4.25-2.78,1.7,8.26a11.74,11.74,0,0,1-5.63-.52,2.22,2.22,0,0,1-1.42-2.19l0-.95A2.32,2.32,0,0,1,137.63,188.42Z" style="fill:#ffc3bd"></path><path d="M149.32,187.17v1.65a3,3,0,0,1-1.44,2.53l-4.3,2.55-1.7-8.26,3.51-1.25A3,3,0,0,1,149.32,187.17Z" style="fill:#ffc3bd"></path><path d="M158.47,127.22c.07.6.45,1.07.84,1s.64-.54.57-1.15-.45-1.07-.84-1S158.39,126.61,158.47,127.22Z" style="fill:#263238"></path><path d="M155.87,124a.37.37,0,0,1-.21-.63,3.37,3.37,0,0,1,3.08-.79.39.39,0,0,1,.26.45.34.34,0,0,1-.43.24h0a2.68,2.68,0,0,0-2.43.65A.34.34,0,0,1,155.87,124Z" style="fill:#263238"></path><path d="M140.84,136.38c1.35,5.48,2.38,13.06-1.26,16.72,0,0,1.77,5.55,11.95,5.55,11.19,0,5.13-4.87,5.13-4.87-4.72-1.45-4.95-6.74-4.1-11Z" style="fill:#ffc3bd"></path><path d="M158.58,152.92s-1.82-3.86-3.52-4.53-12.4-2.41-14.77-.87-3.77,6.48-3.77,6.48Z" style="fill:#263238"></path><path d="M160.34,409c1,0,1.88-.13,2.17-.57a.67.67,0,0,0-.06-.77.86.86,0,0,0-.58-.41c-1.26-.34-3.8,1.15-3.91,1.21a.18.18,0,0,0-.08.18.21.21,0,0,0,.15.15A13.83,13.83,0,0,0,160.34,409Zm1.11-1.45a1.22,1.22,0,0,1,.34,0,.51.51,0,0,1,.36.25c.14.22.1.32.06.39-.33.48-2.22.49-3.62.3A7.65,7.65,0,0,1,161.45,407.53Z" style="fill:#36357E"></path><path d="M158.06,408.77h.08c.88-.41,2.59-2,2.41-2.87,0-.2-.2-.45-.69-.5a1.27,1.27,0,0,0-1,.3c-.91.79-1,2.8-1,2.89a.21.21,0,0,0,.08.16A.19.19,0,0,0,158.06,408.77Zm1.68-3h.1c.32,0,.35.16.36.2.11.51-1,1.78-1.94,2.34a4,4,0,0,1,.87-2.31A.88.88,0,0,1,159.74,405.74Z" style="fill:#36357E"></path><polygon points="149.82 408.59 157.31 408.59 157.18 391.26 149.69 391.26 149.82 408.59" style="fill:#ffc3bd"></polygon><path d="M157.22,407.73H149a.61.61,0,0,0-.61.51l-1.14,6.65a1.15,1.15,0,0,0,1.14,1.33c2.95-.05,7.2-.22,10.91-.22,4.33,0,4.87.24,9.95.24,3.07,0,3.77-3.11,2.47-3.39-5.92-1.28-7.49-1.42-12.71-4.54A3.62,3.62,0,0,0,157.22,407.73Z" style="fill:#263238"></path><path d="M126.18,153.12c-6.94,1.61-10.61,20.54-10.61,20.54l12.16,8.8a20.88,20.88,0,0,0,8-12.92C137.7,160.16,133.27,151.48,126.18,153.12Z" style="fill:#36357E"></path><path d="M132.86,166.29c-3.62,3.77-5.79,9.72-5.78,15.69l.65.48a20.88,20.88,0,0,0,8-12.92c.11-.56.21-1.12.28-1.67Z" style="opacity:0.2"></path><path d="M170.89,160.63c1.94,8.08,3.73,24.69,1,57.57h-40c.44-5.7,1.76-36.12-5.63-65.08a103.46,103.46,0,0,1,13.31-1.69,146.33,146.33,0,0,1,17,0c1.89.17,3.74.44,5.4.73A11.35,11.35,0,0,1,170.89,160.63Z" style="fill:#36357E"></path><polygon points="157.18 391.27 157.25 400.2 149.76 400.2 149.69 391.27 157.18 391.27" style="opacity:0.2"></polygon><path d="M138.43,127.46c1.37,7.4,1.8,11.79,6,15.32,6.27,5.32,14.89,1.22,15.72-6.34.75-6.8-1.61-17.77-9.14-20.18S137.07,120.05,138.43,127.46Z" style="fill:#ffc3bd"></path><path d="M155.6,131.27c.25-2.45,4.13-1.47.93-6.48-1.06-1.68-3.14-4.16-1.71-4.14s3.18-.38,3.6-3.64c.31-2.47-2.79-7.63-7.09-6.43s-3.65,1.77-7.36,1.69-7.47,1.41-7.74,3.5.26,2.78.26,2.78a5.61,5.61,0,0,0-4.68,5.14c-.27,3.93,3.52,3.56,4.5,7.38.66,2.63,4.33,5,4.36,7.27s4.27,3.62,7.09,3.48S154.89,138.18,155.6,131.27Z" style="fill:#263238"></path><path d="M135.33,121.08a5.24,5.24,0,0,1-5.21-4.13,1,1,0,0,1,.68-1.24,1,1,0,0,1,1.24.68,3.34,3.34,0,0,0,4.08,2.6,1,1,0,0,1,.49,1.94A5.35,5.35,0,0,1,135.33,121.08Z" style="fill:#263238"></path><path d="M159.57,142.5h-.06c-.23,0-.51-.13-.57-.69-.1-.93-2.3-2.64-3.91-3.89a20.63,20.63,0,0,1-2.85-2.48c-1-1.22-.58-3.51.08-5.09.75-1.79,1.84-2.92,2.92-3,2.47-.23,4.08,2.59,5.37,4.86a15.74,15.74,0,0,0,1.16,1.85l.14.17,0,.23C160.41,142.16,160,142.5,159.57,142.5Zm-4.13-14.18h-.17c-.67.06-1.51,1-2.08,2.4-.7,1.67-.8,3.38-.24,4.07a19.42,19.42,0,0,0,2.7,2.33,19.19,19.19,0,0,1,3.85,3.52c.35-1.36.86-3.84,1.29-6.16a19.78,19.78,0,0,1-1.11-1.8C158.57,130.74,157.19,128.32,155.44,128.32Z" style="fill:#36357E"></path><path d="M151.51,129.31a9,9,0,0,0,2.53,4.91c1.78,1.74,3.37.54,3.46-1.67.08-2-.75-5.3-2.82-6.22S151.18,127.08,151.51,129.31Z" style="fill:#ffc3bd"></path><path d="M95.71,406.4a3.09,3.09,0,0,0-.66-2.21.66.66,0,0,0-.77,0,.82.82,0,0,0-.39.56c-.29,1.24,1.32,3.87,1.39,4a.17.17,0,0,0,.18.09.16.16,0,0,0,.14-.14A12.36,12.36,0,0,0,95.71,406.4Zm-1.5-1.2a1.22,1.22,0,0,1,0-.34.51.51,0,0,1,.24-.35c.21-.12.32-.08.39,0,.5.35.59,2.24.46,3.63A8.34,8.34,0,0,1,94.21,405.2Z" style="fill:#36357E"></path><path d="M95.61,408.65a.64.64,0,0,1,0-.07c-.45-.9-2.15-2.7-3-2.57-.2,0-.44.17-.46.65a1.31,1.31,0,0,0,.34,1,5.31,5.31,0,0,0,2.94,1.18.17.17,0,0,0,.16-.07A.2.2,0,0,0,95.61,408.65Zm-3.12-1.84v-.11c0-.32.14-.34.18-.34.51-.08,1.83,1.14,2.43,2.07a4.45,4.45,0,0,1-2.35-1A1,1,0,0,1,92.49,406.81Z" style="fill:#36357E"></path><polygon points="95.49 408.7 102.82 409.22 106.04 391.75 98.71 391.23 95.49 408.7" style="fill:#ffc3bd"></polygon><path d="M95.43,407l8.11-.72a.68.68,0,0,1,.7.45l2.39,6.5a1,1,0,0,1-.88,1.42c-2.93.21-7.18.41-10.86.74-4.29.38-1.5.37-6.54.82-3,.27-4.32-2.75-3.09-3.14,5.63-1.8,6.61-3,8.47-5.33A2.37,2.37,0,0,1,95.43,407Z" style="fill:#263238"></path><polygon points="106.04 391.75 104.38 400.76 97.05 400.24 98.71 391.24 106.04 391.75" style="opacity:0.2"></polygon><path d="M157.65,218.2S143.34,275.7,137.89,297c-6,23.37-29.26,100.9-29.26,100.9L95.28,395s15.27-66.61,21.35-99.21c4.67-25,15.18-77.63,15.18-77.63Z" style="fill:#263238"></path><path d="M110.74,393.86c.06,0-1,5.15-1,5.15l-16-1.7.82-7Z" style="fill:#36357E"></path><path d="M149.46,244.85c-9.46,1.25-11.58,34.46-12,53.94.15-.62.31-1.2.45-1.76,3-11.65,8.59-34.1,13.08-52.07A3.29,3.29,0,0,0,149.46,244.85Z" style="opacity:0.30000000000000004"></path><path d="M171.85,218.2s-2.94,56-4.27,78.79c-1.39,23.71-7.17,101.48-7.17,101.48H147.74s-2.33-76.35-3-99.67c-.73-25.42.79-80.6.79-80.6Z" style="fill:#263238"></path><path d="M162,391.33c.05,0-.35,7.35-.35,7.35H146.26l-.75-6.56Z" style="fill:#36357E"></path><path d="M170.85,160.75q2.16,7.65,4,15.39c1.25,5.14,2.4,10.32,3.55,15.43l.86,3.79.44,1.82.12.44,0,.22,0,0v0l0-.06a2.41,2.41,0,0,0-.39-.57c-.35-.37-.65-.42-.61-.36a1.37,1.37,0,0,0,.65.24,13.82,13.82,0,0,0,2.91.11,52.67,52.67,0,0,0,7.18-1l3.73-.8,3.72-.9.09,0a2.84,2.84,0,0,1,2.16,5.17c-1.22.76-2.4,1.39-3.64,2s-2.46,1.24-3.74,1.79a44.72,44.72,0,0,1-8.19,2.73,20.56,20.56,0,0,1-5,.51,12,12,0,0,1-3.22-.53,9.62,9.62,0,0,1-1.94-.88,8.61,8.61,0,0,1-1.93-1.65,8.2,8.2,0,0,1-1.36-2.28l-.18-.51-.09-.26-.17-.5-.62-2-1.16-3.87c-1.45-5.13-2.83-10.19-4.21-15.28s-2.7-10.15-4-15.25a5.67,5.67,0,0,1,11-2.94Z" style="fill:#ffc3bd"></path><path d="M198.66,199.5a2,2,0,0,1-1.82-.92l-.94-1.41a2.2,2.2,0,0,1,0-2.4l2-3.08a4.47,4.47,0,0,1,2.38-1.84l4-1.29a2.41,2.41,0,0,1,2.45,1l1.37,2a2.66,2.66,0,0,1-.73,3.75l-1.67,1A11,11,0,0,1,198.66,199.5Z" style="fill:#ffc3bd"></path><path d="M154.14,160.33c-.48,6.34,6.38,19.85,6.38,19.85l17.19-2.07s-1.88-13.17-7.79-20.6C162.63,148.34,154.73,152.63,154.14,160.33Z" style="fill:#36357E"></path></g><g id="freepik--Distance--inject-26"><rect x="189.22" y="77.5" width="121.57" height="5" style="fill:#36357E"></rect><polygon points="171.57 80 196.44 90.16 190.54 80 196.44 69.84 171.57 80" style="fill:#36357E"></polygon><polygon points="328.43 80 303.56 90.16 309.46 80 303.56 69.84 328.43 80" style="fill:#36357E"></polygon><rect x="217.22" y="85.44" width="18.39" height="1" style="fill:#36357E"></rect><rect x="240.06" y="85.44" width="6.44" height="1" style="fill:#36357E"></rect></g></svg>